<svg width="16.000000" height="16.000000" viewBox="0 0 16 16" fill="none" xmlns="http://www.w3.org/2000/svg" xmlns:xlink="http://www.w3.org/1999/xlink">
	<desc>
			Created with Pixso.
	</desc>
	<defs>
		<clipPath id="clip0_99">
			<rect id="brush" width="16.000000" height="16.000000" fill="white" fill-opacity="0"/>
		</clipPath>
	</defs>
	<rect id="brush" width="16.000000" height="16.000000" fill="#FFFFFF" fill-opacity="0"/>
	<g clip-path="url(#clip0_99)">
		<path id="Rectangle-path" d="M0 0L0 16L16 16L16 0L0 0Z" fill="#FFFFFF" fill-opacity="0" fill-rule="evenodd"/>
		<path id="Shape" d="M6.10156 7.54639C8.13037 5.55286 14.9432 0.0927734 15.5592 0.697632C16.1744 1.30164 10.62 8 8.59198 9.99438C7.58557 10.984 7.04559 11.3145 6.6416 11.6176C6.48615 11.7345 6.42603 11.6094 6.38538 11.5248C6.38037 11.5144 6.37573 11.5046 6.37115 11.496C6.16479 11.1049 5.97198 10.8304 5.612 10.4761C5.25116 10.1216 4.97198 9.93201 4.57355 9.72961C4.5647 9.7251 4.55463 9.72034 4.54388 9.71533C4.45856 9.67542 4.33179 9.61597 4.45117 9.46326C4.75916 9.06641 5.09515 8.53601 6.10156 7.54639ZM2.27039 10.9176C1.07117 12.0968 2.08398 13.3064 0.490356 15.1008C-0.228821 15.9113 3.45117 15.6641 5.27356 13.8712C6.04718 13.1112 5.8288 12.0032 4.99921 11.188C4.1712 10.3721 3.04401 10.1576 2.27039 10.9176Z" clip-rule="evenodd" fill="#FFFFFF" fill-opacity="1.000000" fill-rule="evenodd"/>
	</g>
</svg>
