<svg width="16.000000" height="16.000000" viewBox="0 0 16 16" fill="none" xmlns="http://www.w3.org/2000/svg" xmlns:xlink="http://www.w3.org/1999/xlink">
	<desc>
			Created with Pixso.
	</desc>
	<defs>
		<clipPath id="clip0_117">
			<rect id="camera" width="16.000000" height="16.000000" fill="white" fill-opacity="0"/>
		</clipPath>
	</defs>
	<rect id="camera" width="16.000000" height="16.000000" fill="#FFFFFF" fill-opacity="0"/>
	<g clip-path="url(#clip0_117)">
		<path id="Rectangle-path" d="M0 0L0 16L16 16L16 0L0 0Z" fill="#FFFFFF" fill-opacity="0" fill-rule="evenodd"/>
		<path id="Shape" d="M12.4224 3.96973L14.3232 3.96973C15.1945 3.96973 15.908 4.6825 15.908 5.55371L15.908 12.6825C15.908 13.5537 15.1952 14.2665 14.324 14.2665L1.65039 14.2665C0.779175 14.2665 0.0664062 13.5537 0.0664062 12.6825L0.0664062 5.55371C0.0664062 4.6825 0.779175 3.96973 1.65039 3.96973L3.55115 3.96973C3.81201 3.96973 4.09363 3.76733 4.17676 3.51929L4.66797 2.04492C4.75037 1.79688 5.03198 1.59448 5.29358 1.59448L10.6801 1.59448C10.9417 1.59448 11.2224 1.79688 11.3057 2.04492L11.7968 3.51929C11.8792 3.76733 12.1608 3.96973 12.4224 3.96973ZM7.98645 12.6825C5.79919 12.6825 4.02637 10.9097 4.02637 8.72168C4.02637 6.53528 5.79919 4.76172 7.98645 4.76172C10.1736 4.76172 11.9473 6.53528 11.9473 8.72168C11.9473 10.9097 10.1736 12.6825 7.98645 12.6825ZM13.2152 6.1073C13.2152 6.41284 13.4633 6.66174 13.7688 6.66174C14.0752 6.66174 14.3232 6.41284 14.3232 6.1073C14.3232 5.80164 14.0752 5.55286 13.7688 5.55286C13.4633 5.55286 13.2152 5.80164 13.2152 6.1073ZM5.61035 8.72168C5.61035 7.41052 6.67358 6.3457 7.98645 6.3457C9.29919 6.3457 10.3632 7.41052 10.3632 8.72168C10.3632 10.0344 9.29846 11.0985 7.98645 11.0985C6.67444 11.0985 5.61035 10.0344 5.61035 8.72168Z" clip-rule="evenodd" fill="#FFFFFF" fill-opacity="1.000000" fill-rule="evenodd"/>
	</g>
</svg>
