<svg width="16.000000" height="16.000000" viewBox="0 0 16 16" fill="none" xmlns="http://www.w3.org/2000/svg" xmlns:xlink="http://www.w3.org/1999/xlink">
	<desc>
			Created with Pixso.
	</desc>
	<defs>
		<clipPath id="clip0_83">
			<rect id="music2" width="16.000000" height="16.000000" fill="white" fill-opacity="0"/>
		</clipPath>
	</defs>
	<rect id="music2" width="16.000000" height="16.000000" fill="#FFFFFF" fill-opacity="0"/>
	<g clip-path="url(#clip0_83)">
		<path id="Rectangle-path" d="M0 0L0 15.99L16 15.99L16 0L0 0Z" fill="#FFFFFF" fill-opacity="0" fill-rule="evenodd"/>
		<path id="Shape" d="M5.07 2.17L5.07 11.57C4.56 11.46 3.96 11.5 3.37 11.72C2.04 12.21 1.58 13.41 1.93 14.4C2.28 15.39 3.32 15.79 4.65 15.29C5.78 14.87 6.51 13.95 6.5 13.07C6.5 13.07 6.5 8.09 6.5 5.31L12.12 4.02L12.12 9.98C11.61 9.87 11.01 9.91 10.42 10.13C9.09 10.63 8.63 11.83 8.98 12.82C9.33 13.8 10.37 14.2 11.7 13.71C12.83 13.29 13.56 12.36 13.55 11.49L13.55 0.35L5.07 2.17Z" fill="#FFFFFF" fill-opacity="1.000000" fill-rule="evenodd"/>
	</g>
</svg>
